# xmcd CD database file generated by OrangeCD 6.1
#
# Track frame offsets:
#	150
#	11873
#	20990
#	33658
#	46255
#	59798
#	76715
#	92720
#	107133
#	123160
#	131683
#	145005
#
# Disc length: 2108 seconds
#
# Revision: 3
# Processed by: cddbd v1.5.2PL0 Copyright (c) Steve Scherf et al.
# Submitted via: OrangeCD 6.1
#
DISCID=a5083a0c
DTITLE=Billie Holiday - My Man
DYEAR=1993
DGENRE=Blues
TTITLE0=My Man
TTITLE1=Miss Brown To You (Version 1)
TTITLE2=Keeps On A 'Raining'
TTITLE3=Love Man
TTITLE4=I Cover The Waterfront
TTITLE5=All Of Me
TTITLE6=You're My Thrill
TTITLE7=He's Funny That Way
TTITLE8=Billie's Blues
TTITLE9=Miss Brown To You (Version 2)
TTITLE10=My Man (Mon Homme) (Version 2)
TTITLE11=Tenderly
EXTD=
EXTT0=
EXTT1=
EXTT2=
EXTT3=
EXTT4=
EXTT5=
EXTT6=
EXTT7=
EXTT8=
EXTT9=
EXTT10=
EXTT11=
PLAYORDER=
